<?xml version="1.0" encoding="utf-8" standalone="no"?>
<!DOCTYPE svg PUBLIC "-//W3C//DTD SVG 1.1//EN"
  "http://www.w3.org/Graphics/SVG/1.1/DTD/svg11.dtd">
<svg xmlns:xlink="http://www.w3.org/1999/xlink" width="460.8pt" height="345.6pt" viewBox="0 0 460.8 345.6" xmlns="http://www.w3.org/2000/svg" version="1.1">
 <metadata>
  <rdf:RDF xmlns:dc="http://purl.org/dc/elements/1.1/" xmlns:cc="http://creativecommons.org/ns#" xmlns:rdf="http://www.w3.org/1999/02/22-rdf-syntax-ns#">
   <cc:Work>
    <dc:type rdf:resource="http://purl.org/dc/dcmitype/StillImage"/>
    <dc:date>2025-08-14T12:58:18.653820</dc:date>
    <dc:format>image/svg+xml</dc:format>
    <dc:creator>
     <cc:Agent>
      <dc:title>Matplotlib v3.9.1, https://matplotlib.org/</dc:title>
     </cc:Agent>
    </dc:creator>
   </cc:Work>
  </rdf:RDF>
 </metadata>
 <defs>
  <style type="text/css">*{stroke-linejoin: round; stroke-linecap: butt}</style>
 </defs>
 <g id="figure_1">
  <g id="patch_1">
   <path d="M 0 345.6 
L 460.8 345.6 
L 460.8 0 
L 0 0 
z
" style="fill: #ffffff"/>
  </g>
  <g id="axes_1">
   <g id="patch_2">
    <path d="M 56.18 303.64 
L 450 303.64 
L 450 10.8 
L 56.18 10.8 
z
" style="fill: #ffffff"/>
   </g>
   <g id="PolyCollection_1">
    <defs>
     <path id="mfba7840f82" d="M 56.18 -298.055487 
L 56.18 -298.055487 
L 60.1182 -297.922567 
L 64.0564 -296.25074 
L 67.9946 -292.350016 
L 71.9328 -291.04818 
L 75.871 -289.64999 
L 79.8092 -288.263221 
L 83.7474 -286.60384 
L 87.6856 -285.079809 
L 91.6238 -283.71554 
L 95.562 -282.637192 
L 99.5002 -281.595051 
L 103.4384 -280.497703 
L 107.3766 -279.300138 
L 111.3148 -277.946072 
L 115.253 -276.421208 
L 119.1912 -274.864064 
L 123.1294 -273.32592 
L 127.0676 -271.811001 
L 131.0058 -270.326292 
L 134.944 -268.88266 
L 138.8822 -267.465546 
L 142.8204 -266.051681 
L 146.7586 -264.606796 
L 150.6968 -263.126442 
L 154.635 -261.627458 
L 158.5732 -260.15279 
L 162.5114 -258.799217 
L 166.4496 -257.584353 
L 170.3878 -256.484958 
L 174.326 -255.950491 
L 178.2642 -255.012823 
L 182.2024 -254.131586 
L 186.1406 -253.281494 
L 190.0788 -252.403939 
L 194.017 -251.500389 
L 197.9552 -250.763594 
L 201.8934 -250.191497 
L 205.8316 -249.634672 
L 209.7698 -249.052445 
L 213.708 -248.599301 
L 217.6462 -248.258948 
L 221.5844 -247.843616 
L 225.5226 -247.605243 
L 229.4608 -247.45409 
L 233.399 -247.37305 
L 237.3372 -247.380471 
L 241.2754 -247.56324 
L 245.2136 -247.680519 
L 249.1518 -247.773293 
L 253.09 -247.908466 
L 257.0282 -248.083588 
L 260.9664 -248.292465 
L 264.9046 -248.529927 
L 268.8428 -248.795634 
L 272.781 -249.08873 
L 276.7192 -249.41246 
L 280.6574 -249.832285 
L 284.5956 -250.398352 
L 288.5338 -250.781192 
L 292.472 -251.270045 
L 296.4102 -251.809769 
L 300.3484 -252.328098 
L 304.2866 -252.832602 
L 308.2248 -253.333792 
L 312.163 -253.820143 
L 316.1012 -254.282842 
L 320.0394 -254.760426 
L 323.9776 -255.246393 
L 327.9158 -255.692159 
L 331.854 -256.140752 
L 335.7922 -256.601746 
L 339.7304 -257.062123 
L 343.6686 -257.507069 
L 347.6068 -257.924167 
L 351.545 -258.29182 
L 355.4832 -258.54914 
L 359.4214 -259.014376 
L 363.3596 -259.472623 
L 367.2978 -259.661257 
L 371.236 -260.359489 
L 375.1742 -260.942588 
L 379.1124 -261.320927 
L 383.0506 -261.606469 
L 386.9888 -261.84885 
L 390.927 -262.0568 
L 394.8652 -262.238501 
L 398.8034 -262.405786 
L 402.7416 -262.563898 
L 406.6798 -262.712359 
L 410.618 -262.84679 
L 414.5562 -262.95269 
L 418.4944 -263.014478 
L 422.4326 -263.02029 
L 426.3708 -262.969379 
L 430.309 -262.860467 
L 434.2472 -262.701063 
L 438.1854 -262.499978 
L 442.1236 -262.267898 
L 446.0618 -262.015048 
L 446.0618 -308.258951 
L 446.0618 -308.258951 
L 442.1236 -308.292733 
L 438.1854 -308.342627 
L 434.2472 -308.41813 
L 430.309 -308.524363 
L 426.3708 -308.663159 
L 422.4326 -308.830933 
L 418.4944 -309.022621 
L 414.5562 -309.233957 
L 410.618 -309.452263 
L 406.6798 -309.661912 
L 402.7416 -309.855096 
L 398.8034 -310.030538 
L 394.8652 -310.189645 
L 390.927 -310.332975 
L 386.9888 -310.46432 
L 383.0506 -310.580711 
L 379.1124 -310.680257 
L 375.1742 -310.76878 
L 371.236 -310.973443 
L 367.2978 -311.261401 
L 363.3596 -311.119947 
L 359.4214 -311.155818 
L 355.4832 -311.168426 
L 351.545 -310.981661 
L 347.6068 -310.847004 
L 343.6686 -310.719678 
L 339.7304 -310.585773 
L 335.7922 -310.439791 
L 331.854 -310.277206 
L 327.9158 -310.098407 
L 323.9776 -309.925082 
L 320.0394 -309.771051 
L 316.1012 -309.589413 
L 312.163 -309.399425 
L 308.2248 -309.230104 
L 304.2866 -309.05937 
L 300.3484 -308.886682 
L 296.4102 -308.73019 
L 292.472 -308.604152 
L 288.5338 -308.45795 
L 284.5956 -308.243293 
L 280.6574 -308.105994 
L 276.7192 -307.945385 
L 272.781 -307.733579 
L 268.8428 -307.520265 
L 264.9046 -307.31129 
L 260.9664 -307.111145 
L 257.0282 -306.926088 
L 253.09 -306.761895 
L 249.1518 -306.620578 
L 245.2136 -306.498843 
L 241.2754 -306.406949 
L 237.3372 -306.44929 
L 233.399 -306.441688 
L 229.4608 -306.424537 
L 225.5226 -306.409863 
L 221.5844 -306.38912 
L 217.6462 -306.357856 
L 213.708 -306.351499 
L 209.7698 -306.344348 
L 205.8316 -306.320543 
L 201.8934 -306.361374 
L 197.9552 -306.393015 
L 194.017 -306.365637 
L 190.0788 -306.292425 
L 186.1406 -306.311355 
L 182.2024 -306.39586 
L 178.2642 -306.493718 
L 174.326 -306.572537 
L 170.3878 -306.974891 
L 166.4496 -307.039383 
L 162.5114 -307.059615 
L 158.5732 -307.008843 
L 154.635 -306.894347 
L 150.6968 -306.78555 
L 146.7586 -306.708253 
L 142.8204 -306.67398 
L 138.8822 -306.684712 
L 134.944 -306.707629 
L 131.0058 -306.713579 
L 127.0676 -306.685596 
L 123.1294 -306.62725 
L 119.1912 -306.537621 
L 115.253 -306.417018 
L 111.3148 -306.30847 
L 107.3766 -306.314977 
L 103.4384 -306.39381 
L 99.5002 -306.492301 
L 95.562 -306.571709 
L 91.6238 -306.546583 
L 87.6856 -306.194025 
L 83.7474 -305.649138 
L 79.8092 -304.896613 
L 75.871 -304.312615 
L 71.9328 -303.603268 
L 67.9946 -302.877935 
L 64.0564 -299.511272 
L 60.1182 -298.118153 
L 56.18 -298.055487 
z
" style="stroke: #000000; stroke-opacity: 0.2"/>
    </defs>
    <g clip-path="url(#p4d1eb10f53)">
     <use xlink:href="#mfba7840f82" x="0" y="345.6" style="fill-opacity: 0.2; stroke: #000000; stroke-opacity: 0.2"/>
    </g>
   </g>
   <g id="PolyCollection_2">
    <defs>
     <path id="mb6d4dbeec5" d="M 56.18 -298.055487 
L 56.18 -298.055487 
L 60.1182 -294.404915 
L 64.0564 -287.516505 
L 67.9946 -280.727664 
L 71.9328 -273.728535 
L 75.871 -266.044117 
L 79.8092 -259.412426 
L 83.7474 -253.247341 
L 87.6856 -245.767068 
L 91.6238 -238.75066 
L 95.562 -232.180125 
L 99.5002 -225.5321 
L 103.4384 -218.030866 
L 107.3766 -211.724742 
L 111.3148 -204.607531 
L 115.253 -198.062293 
L 119.1912 -191.791893 
L 123.1294 -185.298368 
L 127.0676 -179.181117 
L 131.0058 -173.207625 
L 134.944 -166.940914 
L 138.8822 -160.989616 
L 142.8204 -155.3034 
L 146.7586 -149.786759 
L 150.6968 -144.50804 
L 154.635 -139.31947 
L 158.5732 -134.079536 
L 162.5114 -129.228483 
L 166.4496 -124.380555 
L 170.3878 -119.705635 
L 174.326 -114.993866 
L 178.2642 -110.523595 
L 182.2024 -106.048894 
L 186.1406 -102.103085 
L 190.0788 -98.223987 
L 194.017 -94.356243 
L 197.9552 -90.76579 
L 201.8934 -87.06962 
L 205.8316 -83.725507 
L 209.7698 -80.990613 
L 213.708 -78.510668 
L 217.6462 -76.142432 
L 221.5844 -73.920055 
L 225.5226 -71.63433 
L 229.4608 -69.528113 
L 233.399 -67.30735 
L 237.3372 -65.467776 
L 241.2754 -63.751343 
L 245.2136 -62.057142 
L 249.1518 -60.709109 
L 253.09 -59.573857 
L 257.0282 -58.378227 
L 260.9664 -57.527549 
L 264.9046 -56.848779 
L 268.8428 -56.21304 
L 272.781 -55.820558 
L 276.7192 -55.564658 
L 280.6574 -55.34103 
L 284.5956 -55.270909 
L 288.5338 -55.340462 
L 292.472 -55.330308 
L 296.4102 -55.383862 
L 300.3484 -55.576233 
L 304.2866 -55.759813 
L 308.2248 -56.02684 
L 312.163 -56.339268 
L 316.1012 -56.805503 
L 320.0394 -57.325851 
L 323.9776 -57.904203 
L 327.9158 -58.39917 
L 331.854 -59.166317 
L 335.7922 -60.02973 
L 339.7304 -60.636161 
L 343.6686 -61.468161 
L 347.6068 -61.960841 
L 351.545 -62.773591 
L 355.4832 -63.411073 
L 359.4214 -64.397991 
L 363.3596 -65.649992 
L 367.2978 -66.642093 
L 371.236 -67.665125 
L 375.1742 -68.737208 
L 379.1124 -69.935273 
L 383.0506 -71.399014 
L 386.9888 -72.71269 
L 390.927 -74.106813 
L 394.8652 -75.518106 
L 398.8034 -76.722767 
L 402.7416 -77.795264 
L 406.6798 -78.822835 
L 410.618 -79.695264 
L 414.5562 -80.563066 
L 418.4944 -81.542773 
L 422.4326 -82.513336 
L 426.3708 -83.296268 
L 430.309 -84.034294 
L 434.2472 -84.672639 
L 438.1854 -85.287752 
L 442.1236 -85.588944 
L 446.0618 -85.893145 
L 446.0618 -264.674504 
L 446.0618 -264.674504 
L 442.1236 -264.291949 
L 438.1854 -263.991157 
L 434.2472 -263.379253 
L 430.309 -262.990424 
L 426.3708 -262.60497 
L 422.4326 -261.952234 
L 418.4944 -261.073004 
L 414.5562 -260.281119 
L 410.618 -259.286301 
L 406.6798 -258.355601 
L 402.7416 -257.279547 
L 398.8034 -256.352169 
L 394.8652 -255.22741 
L 390.927 -254.018561 
L 386.9888 -252.785584 
L 383.0506 -251.819704 
L 379.1124 -250.719259 
L 375.1742 -249.707095 
L 371.236 -248.422207 
L 367.2978 -247.126202 
L 363.3596 -246.010645 
L 359.4214 -244.352267 
L 355.4832 -243.136388 
L 351.545 -242.122363 
L 347.6068 -240.994269 
L 343.6686 -240.185286 
L 339.7304 -239.069565 
L 335.7922 -238.089623 
L 331.854 -237.149243 
L 327.9158 -236.43417 
L 323.9776 -235.87826 
L 320.0394 -235.194844 
L 316.1012 -234.760626 
L 312.163 -234.645836 
L 308.2248 -234.291445 
L 304.2866 -233.877174 
L 300.3484 -233.485645 
L 296.4102 -233.529478 
L 292.472 -233.749939 
L 288.5338 -233.95502 
L 284.5956 -234.015914 
L 280.6574 -234.153491 
L 276.7192 -234.376233 
L 272.781 -234.471171 
L 268.8428 -235.023207 
L 264.9046 -235.871496 
L 260.9664 -236.844206 
L 257.0282 -237.89348 
L 253.09 -239.192739 
L 249.1518 -240.882762 
L 245.2136 -242.512381 
L 241.2754 -244.434284 
L 237.3372 -246.685043 
L 233.399 -248.650446 
L 229.4608 -250.800071 
L 225.5226 -253.069877 
L 221.5844 -255.510308 
L 217.6462 -257.943697 
L 213.708 -260.361771 
L 209.7698 -262.845571 
L 205.8316 -265.214793 
L 201.8934 -267.844748 
L 197.9552 -270.655047 
L 194.017 -273.589969 
L 190.0788 -276.468029 
L 186.1406 -279.449213 
L 182.2024 -282.240563 
L 178.2642 -285.107831 
L 174.326 -288.157548 
L 170.3878 -291.12416 
L 166.4496 -293.963986 
L 162.5114 -296.710018 
L 158.5732 -299.356765 
L 154.635 -301.921505 
L 150.6968 -304.50077 
L 146.7586 -306.915979 
L 142.8204 -309.128586 
L 138.8822 -311.031545 
L 134.944 -312.79571 
L 131.0058 -314.436445 
L 127.0676 -316.074455 
L 123.1294 -317.493818 
L 119.1912 -318.726217 
L 115.253 -319.766773 
L 111.3148 -320.557891 
L 107.3766 -320.988855 
L 103.4384 -321.489091 
L 99.5002 -321.260109 
L 95.562 -321.067248 
L 91.6238 -320.532971 
L 87.6856 -319.56008 
L 83.7474 -318.105726 
L 79.8092 -317.067819 
L 75.871 -315.284041 
L 71.9328 -312.246484 
L 67.9946 -309.152561 
L 64.0564 -305.473749 
L 60.1182 -300.842129 
L 56.18 -298.055487 
z
" style="stroke: #ff0000; stroke-opacity: 0.2"/>
    </defs>
    <g clip-path="url(#p4d1eb10f53)">
     <use xlink:href="#mb6d4dbeec5" x="0" y="345.6" style="fill: #ff0000; fill-opacity: 0.2; stroke: #ff0000; stroke-opacity: 0.2"/>
    </g>
   </g>
   <g id="matplotlib.axis_1">
    <g id="xtick_1">
     <g id="line2d_1">
      <defs>
       <path id="m37af4c28f8" d="M 0 0 
L 0 3.5 
" style="stroke: #000000; stroke-width: 0.8"/>
      </defs>
      <g>
       <use xlink:href="#m37af4c28f8" x="56.18" y="303.64" style="stroke: #000000; stroke-width: 0.8"/>
      </g>
     </g>
     <g id="text_1">
      <!-- 0 -->
      <g transform="translate(52.99875 318.238437) scale(0.1 -0.1)">
       <defs>
        <path id="DejaVuSans-30" d="M 2034 4250 
Q 1547 4250 1301 3770 
Q 1056 3291 1056 2328 
Q 1056 1369 1301 889 
Q 1547 409 2034 409 
Q 2525 409 2770 889 
Q 3016 1369 3016 2328 
Q 3016 3291 2770 3770 
Q 2525 4250 2034 4250 
z
M 2034 4750 
Q 2819 4750 3233 4129 
Q 3647 3509 3647 2328 
Q 3647 1150 3233 529 
Q 2819 -91 2034 -91 
Q 1250 -91 836 529 
Q 422 1150 422 2328 
Q 422 3509 836 4129 
Q 1250 4750 2034 4750 
z
" transform="scale(0.015625)"/>
       </defs>
       <use xlink:href="#DejaVuSans-30"/>
      </g>
     </g>
    </g>
    <g id="xtick_2">
     <g id="line2d_2">
      <g>
       <use xlink:href="#m37af4c28f8" x="134.944" y="303.64" style="stroke: #000000; stroke-width: 0.8"/>
      </g>
     </g>
     <g id="text_2">
      <!-- 20 -->
      <g transform="translate(128.5815 318.238437) scale(0.1 -0.1)">
       <defs>
        <path id="DejaVuSans-32" d="M 1228 531 
L 3431 531 
L 3431 0 
L 469 0 
L 469 531 
Q 828 903 1448 1529 
Q 2069 2156 2228 2338 
Q 2531 2678 2651 2914 
Q 2772 3150 2772 3378 
Q 2772 3750 2511 3984 
Q 2250 4219 1831 4219 
Q 1534 4219 1204 4116 
Q 875 4013 500 3803 
L 500 4441 
Q 881 4594 1212 4672 
Q 1544 4750 1819 4750 
Q 2544 4750 2975 4387 
Q 3406 4025 3406 3419 
Q 3406 3131 3298 2873 
Q 3191 2616 2906 2266 
Q 2828 2175 2409 1742 
Q 1991 1309 1228 531 
z
" transform="scale(0.015625)"/>
       </defs>
       <use xlink:href="#DejaVuSans-32"/>
       <use xlink:href="#DejaVuSans-30" x="63.623047"/>
      </g>
     </g>
    </g>
    <g id="xtick_3">
     <g id="line2d_3">
      <g>
       <use xlink:href="#m37af4c28f8" x="213.708" y="303.64" style="stroke: #000000; stroke-width: 0.8"/>
      </g>
     </g>
     <g id="text_3">
      <!-- 40 -->
      <g transform="translate(207.3455 318.238437) scale(0.1 -0.1)">
       <defs>
        <path id="DejaVuSans-34" d="M 2419 4116 
L 825 1625 
L 2419 1625 
L 2419 4116 
z
M 2253 4666 
L 3047 4666 
L 3047 1625 
L 3713 1625 
L 3713 1100 
L 3047 1100 
L 3047 0 
L 2419 0 
L 2419 1100 
L 313 1100 
L 313 1709 
L 2253 4666 
z
" transform="scale(0.015625)"/>
       </defs>
       <use xlink:href="#DejaVuSans-34"/>
       <use xlink:href="#DejaVuSans-30" x="63.623047"/>
      </g>
     </g>
    </g>
    <g id="xtick_4">
     <g id="line2d_4">
      <g>
       <use xlink:href="#m37af4c28f8" x="292.472" y="303.64" style="stroke: #000000; stroke-width: 0.8"/>
      </g>
     </g>
     <g id="text_4">
      <!-- 60 -->
      <g transform="translate(286.1095 318.238437) scale(0.1 -0.1)">
       <defs>
        <path id="DejaVuSans-36" d="M 2113 2584 
Q 1688 2584 1439 2293 
Q 1191 2003 1191 1497 
Q 1191 994 1439 701 
Q 1688 409 2113 409 
Q 2538 409 2786 701 
Q 3034 994 3034 1497 
Q 3034 2003 2786 2293 
Q 2538 2584 2113 2584 
z
M 3366 4563 
L 3366 3988 
Q 3128 4100 2886 4159 
Q 2644 4219 2406 4219 
Q 1781 4219 1451 3797 
Q 1122 3375 1075 2522 
Q 1259 2794 1537 2939 
Q 1816 3084 2150 3084 
Q 2853 3084 3261 2657 
Q 3669 2231 3669 1497 
Q 3669 778 3244 343 
Q 2819 -91 2113 -91 
Q 1303 -91 875 529 
Q 447 1150 447 2328 
Q 447 3434 972 4092 
Q 1497 4750 2381 4750 
Q 2619 4750 2861 4703 
Q 3103 4656 3366 4563 
z
" transform="scale(0.015625)"/>
       </defs>
       <use xlink:href="#DejaVuSans-36"/>
       <use xlink:href="#DejaVuSans-30" x="63.623047"/>
      </g>
     </g>
    </g>
    <g id="xtick_5">
     <g id="line2d_5">
      <g>
       <use xlink:href="#m37af4c28f8" x="371.236" y="303.64" style="stroke: #000000; stroke-width: 0.8"/>
      </g>
     </g>
     <g id="text_5">
      <!-- 80 -->
      <g transform="translate(364.8735 318.238437) scale(0.1 -0.1)">
       <defs>
        <path id="DejaVuSans-38" d="M 2034 2216 
Q 1584 2216 1326 1975 
Q 1069 1734 1069 1313 
Q 1069 891 1326 650 
Q 1584 409 2034 409 
Q 2484 409 2743 651 
Q 3003 894 3003 1313 
Q 3003 1734 2745 1975 
Q 2488 2216 2034 2216 
z
M 1403 2484 
Q 997 2584 770 2862 
Q 544 3141 544 3541 
Q 544 4100 942 4425 
Q 1341 4750 2034 4750 
Q 2731 4750 3128 4425 
Q 3525 4100 3525 3541 
Q 3525 3141 3298 2862 
Q 3072 2584 2669 2484 
Q 3125 2378 3379 2068 
Q 3634 1759 3634 1313 
Q 3634 634 3220 271 
Q 2806 -91 2034 -91 
Q 1263 -91 848 271 
Q 434 634 434 1313 
Q 434 1759 690 2068 
Q 947 2378 1403 2484 
z
M 1172 3481 
Q 1172 3119 1398 2916 
Q 1625 2713 2034 2713 
Q 2441 2713 2670 2916 
Q 2900 3119 2900 3481 
Q 2900 3844 2670 4047 
Q 2441 4250 2034 4250 
Q 1625 4250 1398 4047 
Q 1172 3844 1172 3481 
z
" transform="scale(0.015625)"/>
       </defs>
       <use xlink:href="#DejaVuSans-38"/>
       <use xlink:href="#DejaVuSans-30" x="63.623047"/>
      </g>
     </g>
    </g>
    <g id="xtick_6">
     <g id="line2d_6">
      <g>
       <use xlink:href="#m37af4c28f8" x="450" y="303.64" style="stroke: #000000; stroke-width: 0.8"/>
      </g>
     </g>
     <g id="text_6">
      <!-- 100 -->
      <g transform="translate(440.45625 318.238437) scale(0.1 -0.1)">
       <defs>
        <path id="DejaVuSans-31" d="M 794 531 
L 1825 531 
L 1825 4091 
L 703 3866 
L 703 4441 
L 1819 4666 
L 2450 4666 
L 2450 531 
L 3481 531 
L 3481 0 
L 794 0 
L 794 531 
z
" transform="scale(0.015625)"/>
       </defs>
       <use xlink:href="#DejaVuSans-31"/>
       <use xlink:href="#DejaVuSans-30" x="63.623047"/>
       <use xlink:href="#DejaVuSans-30" x="127.246094"/>
      </g>
     </g>
    </g>
    <g id="text_7">
     <!-- Time (fs) -->
     <g transform="translate(231.000937 331.916562) scale(0.1 -0.1)">
      <defs>
       <path id="DejaVuSans-54" d="M -19 4666 
L 3928 4666 
L 3928 4134 
L 2272 4134 
L 2272 0 
L 1638 0 
L 1638 4134 
L -19 4134 
L -19 4666 
z
" transform="scale(0.015625)"/>
       <path id="DejaVuSans-69" d="M 603 3500 
L 1178 3500 
L 1178 0 
L 603 0 
L 603 3500 
z
M 603 4863 
L 1178 4863 
L 1178 4134 
L 603 4134 
L 603 4863 
z
" transform="scale(0.015625)"/>
       <path id="DejaVuSans-6d" d="M 3328 2828 
Q 3544 3216 3844 3400 
Q 4144 3584 4550 3584 
Q 5097 3584 5394 3201 
Q 5691 2819 5691 2113 
L 5691 0 
L 5113 0 
L 5113 2094 
Q 5113 2597 4934 2840 
Q 4756 3084 4391 3084 
Q 3944 3084 3684 2787 
Q 3425 2491 3425 1978 
L 3425 0 
L 2847 0 
L 2847 2094 
Q 2847 2600 2669 2842 
Q 2491 3084 2119 3084 
Q 1678 3084 1418 2786 
Q 1159 2488 1159 1978 
L 1159 0 
L 581 0 
L 581 3500 
L 1159 3500 
L 1159 2956 
Q 1356 3278 1631 3431 
Q 1906 3584 2284 3584 
Q 2666 3584 2933 3390 
Q 3200 3197 3328 2828 
z
" transform="scale(0.015625)"/>
       <path id="DejaVuSans-65" d="M 3597 1894 
L 3597 1613 
L 953 1613 
Q 991 1019 1311 708 
Q 1631 397 2203 397 
Q 2534 397 2845 478 
Q 3156 559 3463 722 
L 3463 178 
Q 3153 47 2828 -22 
Q 2503 -91 2169 -91 
Q 1331 -91 842 396 
Q 353 884 353 1716 
Q 353 2575 817 3079 
Q 1281 3584 2069 3584 
Q 2775 3584 3186 3129 
Q 3597 2675 3597 1894 
z
M 3022 2063 
Q 3016 2534 2758 2815 
Q 2500 3097 2075 3097 
Q 1594 3097 1305 2825 
Q 1016 2553 972 2059 
L 3022 2063 
z
" transform="scale(0.015625)"/>
       <path id="DejaVuSans-20" transform="scale(0.015625)"/>
       <path id="DejaVuSans-28" d="M 1984 4856 
Q 1566 4138 1362 3434 
Q 1159 2731 1159 2009 
Q 1159 1288 1364 580 
Q 1569 -128 1984 -844 
L 1484 -844 
Q 1016 -109 783 600 
Q 550 1309 550 2009 
Q 550 2706 781 3412 
Q 1013 4119 1484 4856 
L 1984 4856 
z
" transform="scale(0.015625)"/>
       <path id="DejaVuSans-66" d="M 2375 4863 
L 2375 4384 
L 1825 4384 
Q 1516 4384 1395 4259 
Q 1275 4134 1275 3809 
L 1275 3500 
L 2222 3500 
L 2222 3053 
L 1275 3053 
L 1275 0 
L 697 0 
L 697 3053 
L 147 3053 
L 147 3500 
L 697 3500 
L 697 3744 
Q 697 4328 969 4595 
Q 1241 4863 1831 4863 
L 2375 4863 
z
" transform="scale(0.015625)"/>
       <path id="DejaVuSans-73" d="M 2834 3397 
L 2834 2853 
Q 2591 2978 2328 3040 
Q 2066 3103 1784 3103 
Q 1356 3103 1142 2972 
Q 928 2841 928 2578 
Q 928 2378 1081 2264 
Q 1234 2150 1697 2047 
L 1894 2003 
Q 2506 1872 2764 1633 
Q 3022 1394 3022 966 
Q 3022 478 2636 193 
Q 2250 -91 1575 -91 
Q 1294 -91 989 -36 
Q 684 19 347 128 
L 347 722 
Q 666 556 975 473 
Q 1284 391 1588 391 
Q 1994 391 2212 530 
Q 2431 669 2431 922 
Q 2431 1156 2273 1281 
Q 2116 1406 1581 1522 
L 1381 1569 
Q 847 1681 609 1914 
Q 372 2147 372 2553 
Q 372 3047 722 3315 
Q 1072 3584 1716 3584 
Q 2034 3584 2315 3537 
Q 2597 3491 2834 3397 
z
" transform="scale(0.015625)"/>
       <path id="DejaVuSans-29" d="M 513 4856 
L 1013 4856 
Q 1481 4119 1714 3412 
Q 1947 2706 1947 2009 
Q 1947 1309 1714 600 
Q 1481 -109 1013 -844 
L 513 -844 
Q 928 -128 1133 580 
Q 1338 1288 1338 2009 
Q 1338 2731 1133 3434 
Q 928 4138 513 4856 
z
" transform="scale(0.015625)"/>
      </defs>
      <use xlink:href="#DejaVuSans-54"/>
      <use xlink:href="#DejaVuSans-69" x="57.958984"/>
      <use xlink:href="#DejaVuSans-6d" x="85.742188"/>
      <use xlink:href="#DejaVuSans-65" x="183.154297"/>
      <use xlink:href="#DejaVuSans-20" x="244.677734"/>
      <use xlink:href="#DejaVuSans-28" x="276.464844"/>
      <use xlink:href="#DejaVuSans-66" x="315.478516"/>
      <use xlink:href="#DejaVuSans-73" x="350.683594"/>
      <use xlink:href="#DejaVuSans-29" x="402.783203"/>
     </g>
    </g>
   </g>
   <g id="matplotlib.axis_2">
    <g id="ytick_1">
     <g id="line2d_7">
      <defs>
       <path id="mc5174284fd" d="M 0 0 
L -3.5 0 
" style="stroke: #000000; stroke-width: 0.8"/>
      </defs>
      <g>
       <use xlink:href="#mc5174284fd" x="56.18" y="303.392734" style="stroke: #000000; stroke-width: 0.8"/>
      </g>
     </g>
     <g id="text_8">
      <!-- −1.0 -->
      <g transform="translate(24.897188 307.191952) scale(0.1 -0.1)">
       <defs>
        <path id="DejaVuSans-2212" d="M 678 2272 
L 4684 2272 
L 4684 1741 
L 678 1741 
L 678 2272 
z
" transform="scale(0.015625)"/>
        <path id="DejaVuSans-2e" d="M 684 794 
L 1344 794 
L 1344 0 
L 684 0 
L 684 794 
z
" transform="scale(0.015625)"/>
       </defs>
       <use xlink:href="#DejaVuSans-2212"/>
       <use xlink:href="#DejaVuSans-31" x="83.789062"/>
       <use xlink:href="#DejaVuSans-2e" x="147.412109"/>
       <use xlink:href="#DejaVuSans-30" x="179.199219"/>
      </g>
     </g>
    </g>
    <g id="ytick_2">
     <g id="line2d_8">
      <g>
       <use xlink:href="#mc5174284fd" x="56.18" y="239.430678" style="stroke: #000000; stroke-width: 0.8"/>
      </g>
     </g>
     <g id="text_9">
      <!-- −0.5 -->
      <g transform="translate(24.897188 243.229897) scale(0.1 -0.1)">
       <defs>
        <path id="DejaVuSans-35" d="M 691 4666 
L 3169 4666 
L 3169 4134 
L 1269 4134 
L 1269 2991 
Q 1406 3038 1543 3061 
Q 1681 3084 1819 3084 
Q 2600 3084 3056 2656 
Q 3513 2228 3513 1497 
Q 3513 744 3044 326 
Q 2575 -91 1722 -91 
Q 1428 -91 1123 -41 
Q 819 9 494 109 
L 494 744 
Q 775 591 1075 516 
Q 1375 441 1709 441 
Q 2250 441 2565 725 
Q 2881 1009 2881 1497 
Q 2881 1984 2565 2268 
Q 2250 2553 1709 2553 
Q 1456 2553 1204 2497 
Q 953 2441 691 2322 
L 691 4666 
z
" transform="scale(0.015625)"/>
       </defs>
       <use xlink:href="#DejaVuSans-2212"/>
       <use xlink:href="#DejaVuSans-30" x="83.789062"/>
       <use xlink:href="#DejaVuSans-2e" x="147.412109"/>
       <use xlink:href="#DejaVuSans-35" x="179.199219"/>
      </g>
     </g>
    </g>
    <g id="ytick_3">
     <g id="line2d_9">
      <g>
       <use xlink:href="#mc5174284fd" x="56.18" y="175.468623" style="stroke: #000000; stroke-width: 0.8"/>
      </g>
     </g>
     <g id="text_10">
      <!-- 0.0 -->
      <g transform="translate(33.276875 179.267842) scale(0.1 -0.1)">
       <use xlink:href="#DejaVuSans-30"/>
       <use xlink:href="#DejaVuSans-2e" x="63.623047"/>
       <use xlink:href="#DejaVuSans-30" x="95.410156"/>
      </g>
     </g>
    </g>
    <g id="ytick_4">
     <g id="line2d_10">
      <g>
       <use xlink:href="#mc5174284fd" x="56.18" y="111.506568" style="stroke: #000000; stroke-width: 0.8"/>
      </g>
     </g>
     <g id="text_11">
      <!-- 0.5 -->
      <g transform="translate(33.276875 115.305787) scale(0.1 -0.1)">
       <use xlink:href="#DejaVuSans-30"/>
       <use xlink:href="#DejaVuSans-2e" x="63.623047"/>
       <use xlink:href="#DejaVuSans-35" x="95.410156"/>
      </g>
     </g>
    </g>
    <g id="ytick_5">
     <g id="line2d_11">
      <g>
       <use xlink:href="#mc5174284fd" x="56.18" y="47.544513" style="stroke: #000000; stroke-width: 0.8"/>
      </g>
     </g>
     <g id="text_12">
      <!-- 1.0 -->
      <g transform="translate(33.276875 51.343731) scale(0.1 -0.1)">
       <use xlink:href="#DejaVuSans-31"/>
       <use xlink:href="#DejaVuSans-2e" x="63.623047"/>
       <use xlink:href="#DejaVuSans-30" x="95.410156"/>
      </g>
     </g>
    </g>
    <g id="text_13">
     <!-- G(t) -->
     <g transform="translate(18.8175 166.955938) rotate(-90) scale(0.1 -0.1)">
      <defs>
       <path id="DejaVuSans-47" d="M 3809 666 
L 3809 1919 
L 2778 1919 
L 2778 2438 
L 4434 2438 
L 4434 434 
Q 4069 175 3628 42 
Q 3188 -91 2688 -91 
Q 1594 -91 976 548 
Q 359 1188 359 2328 
Q 359 3472 976 4111 
Q 1594 4750 2688 4750 
Q 3144 4750 3555 4637 
Q 3966 4525 4313 4306 
L 4313 3634 
Q 3963 3931 3569 4081 
Q 3175 4231 2741 4231 
Q 1884 4231 1454 3753 
Q 1025 3275 1025 2328 
Q 1025 1384 1454 906 
Q 1884 428 2741 428 
Q 3075 428 3337 486 
Q 3600 544 3809 666 
z
" transform="scale(0.015625)"/>
       <path id="DejaVuSans-74" d="M 1172 4494 
L 1172 3500 
L 2356 3500 
L 2356 3053 
L 1172 3053 
L 1172 1153 
Q 1172 725 1289 603 
Q 1406 481 1766 481 
L 2356 481 
L 2356 0 
L 1766 0 
Q 1100 0 847 248 
Q 594 497 594 1153 
L 594 3053 
L 172 3053 
L 172 3500 
L 594 3500 
L 594 4494 
L 1172 4494 
z
" transform="scale(0.015625)"/>
      </defs>
      <use xlink:href="#DejaVuSans-47"/>
      <use xlink:href="#DejaVuSans-28" x="77.490234"/>
      <use xlink:href="#DejaVuSans-74" x="116.503906"/>
      <use xlink:href="#DejaVuSans-29" x="155.712891"/>
     </g>
    </g>
   </g>
   <g id="line2d_12">
    <path d="M 56.18 47.544513 
L 60.1182 47.57964 
L 64.0564 47.718994 
L 67.9946 47.986025 
L 71.9328 48.274276 
L 75.871 48.618697 
L 79.8092 49.020083 
L 83.7474 49.473511 
L 87.6856 49.963083 
L 91.6238 50.468939 
L 95.562 50.99555 
L 99.5002 51.556324 
L 103.4384 52.154244 
L 107.3766 52.792443 
L 111.3148 53.472729 
L 115.253 54.180887 
L 119.1912 54.899157 
L 123.1294 55.623415 
L 127.0676 56.351702 
L 131.0058 57.080064 
L 134.944 57.804856 
L 138.8822 58.524871 
L 142.8204 59.237169 
L 146.7586 59.942475 
L 150.6968 60.644004 
L 154.635 61.339097 
L 158.5732 62.019184 
L 162.5114 62.670584 
L 166.4496 63.288132 
L 170.3878 63.870076 
L 174.326 64.338486 
L 178.2642 64.846729 
L 182.2024 65.336277 
L 186.1406 65.803576 
L 190.0788 66.251818 
L 194.017 66.666987 
L 197.9552 67.021695 
L 201.8934 67.323565 
L 205.8316 67.622393 
L 209.7698 67.901603 
L 213.708 68.1246 
L 217.6462 68.291598 
L 221.5844 68.483632 
L 225.5226 68.592447 
L 229.4608 68.660687 
L 233.399 68.692631 
L 237.3372 68.68512 
L 241.2754 68.614905 
L 245.2136 68.510319 
L 249.1518 68.403065 
L 253.09 68.264819 
L 257.0282 68.095162 
L 260.9664 67.898195 
L 264.9046 67.679391 
L 268.8428 67.44205 
L 272.781 67.188845 
L 276.7192 66.921078 
L 280.6574 66.630861 
L 284.5956 66.279177 
L 288.5338 65.980429 
L 292.472 65.662901 
L 296.4102 65.33002 
L 300.3484 64.99261 
L 304.2866 64.654014 
L 308.2248 64.318052 
L 312.163 63.990216 
L 316.1012 63.663872 
L 320.0394 63.334261 
L 323.9776 63.014262 
L 327.9158 62.704717 
L 331.854 62.391021 
L 335.7922 62.079231 
L 339.7304 61.776052 
L 343.6686 61.486627 
L 347.6068 61.214415 
L 351.545 60.963259 
L 355.4832 60.741217 
L 359.4214 60.514903 
L 363.3596 60.303715 
L 367.2978 60.138671 
L 371.236 59.933534 
L 375.1742 59.744316 
L 379.1124 59.599408 
L 383.0506 59.50641 
L 386.9888 59.443415 
L 390.927 59.405112 
L 394.8652 59.385927 
L 398.8034 59.381838 
L 402.7416 59.390503 
L 406.6798 59.412865 
L 410.618 59.450474 
L 414.5562 59.506677 
L 418.4944 59.58145 
L 422.4326 59.674389 
L 426.3708 59.783731 
L 430.309 59.907585 
L 434.2472 60.040403 
L 438.1854 60.178697 
L 442.1236 60.319684 
L 446.0618 60.463001 
" clip-path="url(#p4d1eb10f53)" style="fill: none; stroke: #000000; stroke-width: 1.5; stroke-linecap: square"/>
    <defs>
     <path id="m0bddedc2c5" d="M 0 3 
C 0.795609 3 1.55874 2.683901 2.12132 2.12132 
C 2.683901 1.55874 3 0.795609 3 0 
C 3 -0.795609 2.683901 -1.55874 2.12132 -2.12132 
C 1.55874 -2.683901 0.795609 -3 0 -3 
C -0.795609 -3 -1.55874 -2.683901 -2.12132 -2.12132 
C -2.683901 -1.55874 -3 -0.795609 -3 0 
C -3 0.795609 -2.683901 1.55874 -2.12132 2.12132 
C -1.55874 2.683901 -0.795609 3 0 3 
z
" style="stroke: #000000"/>
    </defs>
    <g clip-path="url(#p4d1eb10f53)">
     <use xlink:href="#m0bddedc2c5" x="56.18" y="47.544513" style="stroke: #000000"/>
     <use xlink:href="#m0bddedc2c5" x="60.1182" y="47.57964" style="stroke: #000000"/>
     <use xlink:href="#m0bddedc2c5" x="64.0564" y="47.718994" style="stroke: #000000"/>
     <use xlink:href="#m0bddedc2c5" x="67.9946" y="47.986025" style="stroke: #000000"/>
     <use xlink:href="#m0bddedc2c5" x="71.9328" y="48.274276" style="stroke: #000000"/>
     <use xlink:href="#m0bddedc2c5" x="75.871" y="48.618697" style="stroke: #000000"/>
     <use xlink:href="#m0bddedc2c5" x="79.8092" y="49.020083" style="stroke: #000000"/>
     <use xlink:href="#m0bddedc2c5" x="83.7474" y="49.473511" style="stroke: #000000"/>
     <use xlink:href="#m0bddedc2c5" x="87.6856" y="49.963083" style="stroke: #000000"/>
     <use xlink:href="#m0bddedc2c5" x="91.6238" y="50.468939" style="stroke: #000000"/>
     <use xlink:href="#m0bddedc2c5" x="95.562" y="50.99555" style="stroke: #000000"/>
     <use xlink:href="#m0bddedc2c5" x="99.5002" y="51.556324" style="stroke: #000000"/>
     <use xlink:href="#m0bddedc2c5" x="103.4384" y="52.154244" style="stroke: #000000"/>
     <use xlink:href="#m0bddedc2c5" x="107.3766" y="52.792443" style="stroke: #000000"/>
     <use xlink:href="#m0bddedc2c5" x="111.3148" y="53.472729" style="stroke: #000000"/>
     <use xlink:href="#m0bddedc2c5" x="115.253" y="54.180887" style="stroke: #000000"/>
     <use xlink:href="#m0bddedc2c5" x="119.1912" y="54.899157" style="stroke: #000000"/>
     <use xlink:href="#m0bddedc2c5" x="123.1294" y="55.623415" style="stroke: #000000"/>
     <use xlink:href="#m0bddedc2c5" x="127.0676" y="56.351702" style="stroke: #000000"/>
     <use xlink:href="#m0bddedc2c5" x="131.0058" y="57.080064" style="stroke: #000000"/>
     <use xlink:href="#m0bddedc2c5" x="134.944" y="57.804856" style="stroke: #000000"/>
     <use xlink:href="#m0bddedc2c5" x="138.8822" y="58.524871" style="stroke: #000000"/>
     <use xlink:href="#m0bddedc2c5" x="142.8204" y="59.237169" style="stroke: #000000"/>
     <use xlink:href="#m0bddedc2c5" x="146.7586" y="59.942475" style="stroke: #000000"/>
     <use xlink:href="#m0bddedc2c5" x="150.6968" y="60.644004" style="stroke: #000000"/>
     <use xlink:href="#m0bddedc2c5" x="154.635" y="61.339097" style="stroke: #000000"/>
     <use xlink:href="#m0bddedc2c5" x="158.5732" y="62.019184" style="stroke: #000000"/>
     <use xlink:href="#m0bddedc2c5" x="162.5114" y="62.670584" style="stroke: #000000"/>
     <use xlink:href="#m0bddedc2c5" x="166.4496" y="63.288132" style="stroke: #000000"/>
     <use xlink:href="#m0bddedc2c5" x="170.3878" y="63.870076" style="stroke: #000000"/>
     <use xlink:href="#m0bddedc2c5" x="174.326" y="64.338486" style="stroke: #000000"/>
     <use xlink:href="#m0bddedc2c5" x="178.2642" y="64.846729" style="stroke: #000000"/>
     <use xlink:href="#m0bddedc2c5" x="182.2024" y="65.336277" style="stroke: #000000"/>
     <use xlink:href="#m0bddedc2c5" x="186.1406" y="65.803576" style="stroke: #000000"/>
     <use xlink:href="#m0bddedc2c5" x="190.0788" y="66.251818" style="stroke: #000000"/>
     <use xlink:href="#m0bddedc2c5" x="194.017" y="66.666987" style="stroke: #000000"/>
     <use xlink:href="#m0bddedc2c5" x="197.9552" y="67.021695" style="stroke: #000000"/>
     <use xlink:href="#m0bddedc2c5" x="201.8934" y="67.323565" style="stroke: #000000"/>
     <use xlink:href="#m0bddedc2c5" x="205.8316" y="67.622393" style="stroke: #000000"/>
     <use xlink:href="#m0bddedc2c5" x="209.7698" y="67.901603" style="stroke: #000000"/>
     <use xlink:href="#m0bddedc2c5" x="213.708" y="68.1246" style="stroke: #000000"/>
     <use xlink:href="#m0bddedc2c5" x="217.6462" y="68.291598" style="stroke: #000000"/>
     <use xlink:href="#m0bddedc2c5" x="221.5844" y="68.483632" style="stroke: #000000"/>
     <use xlink:href="#m0bddedc2c5" x="225.5226" y="68.592447" style="stroke: #000000"/>
     <use xlink:href="#m0bddedc2c5" x="229.4608" y="68.660687" style="stroke: #000000"/>
     <use xlink:href="#m0bddedc2c5" x="233.399" y="68.692631" style="stroke: #000000"/>
     <use xlink:href="#m0bddedc2c5" x="237.3372" y="68.68512" style="stroke: #000000"/>
     <use xlink:href="#m0bddedc2c5" x="241.2754" y="68.614905" style="stroke: #000000"/>
     <use xlink:href="#m0bddedc2c5" x="245.2136" y="68.510319" style="stroke: #000000"/>
     <use xlink:href="#m0bddedc2c5" x="249.1518" y="68.403065" style="stroke: #000000"/>
     <use xlink:href="#m0bddedc2c5" x="253.09" y="68.264819" style="stroke: #000000"/>
     <use xlink:href="#m0bddedc2c5" x="257.0282" y="68.095162" style="stroke: #000000"/>
     <use xlink:href="#m0bddedc2c5" x="260.9664" y="67.898195" style="stroke: #000000"/>
     <use xlink:href="#m0bddedc2c5" x="264.9046" y="67.679391" style="stroke: #000000"/>
     <use xlink:href="#m0bddedc2c5" x="268.8428" y="67.44205" style="stroke: #000000"/>
     <use xlink:href="#m0bddedc2c5" x="272.781" y="67.188845" style="stroke: #000000"/>
     <use xlink:href="#m0bddedc2c5" x="276.7192" y="66.921078" style="stroke: #000000"/>
     <use xlink:href="#m0bddedc2c5" x="280.6574" y="66.630861" style="stroke: #000000"/>
     <use xlink:href="#m0bddedc2c5" x="284.5956" y="66.279177" style="stroke: #000000"/>
     <use xlink:href="#m0bddedc2c5" x="288.5338" y="65.980429" style="stroke: #000000"/>
     <use xlink:href="#m0bddedc2c5" x="292.472" y="65.662901" style="stroke: #000000"/>
     <use xlink:href="#m0bddedc2c5" x="296.4102" y="65.33002" style="stroke: #000000"/>
     <use xlink:href="#m0bddedc2c5" x="300.3484" y="64.99261" style="stroke: #000000"/>
     <use xlink:href="#m0bddedc2c5" x="304.2866" y="64.654014" style="stroke: #000000"/>
     <use xlink:href="#m0bddedc2c5" x="308.2248" y="64.318052" style="stroke: #000000"/>
     <use xlink:href="#m0bddedc2c5" x="312.163" y="63.990216" style="stroke: #000000"/>
     <use xlink:href="#m0bddedc2c5" x="316.1012" y="63.663872" style="stroke: #000000"/>
     <use xlink:href="#m0bddedc2c5" x="320.0394" y="63.334261" style="stroke: #000000"/>
     <use xlink:href="#m0bddedc2c5" x="323.9776" y="63.014262" style="stroke: #000000"/>
     <use xlink:href="#m0bddedc2c5" x="327.9158" y="62.704717" style="stroke: #000000"/>
     <use xlink:href="#m0bddedc2c5" x="331.854" y="62.391021" style="stroke: #000000"/>
     <use xlink:href="#m0bddedc2c5" x="335.7922" y="62.079231" style="stroke: #000000"/>
     <use xlink:href="#m0bddedc2c5" x="339.7304" y="61.776052" style="stroke: #000000"/>
     <use xlink:href="#m0bddedc2c5" x="343.6686" y="61.486627" style="stroke: #000000"/>
     <use xlink:href="#m0bddedc2c5" x="347.6068" y="61.214415" style="stroke: #000000"/>
     <use xlink:href="#m0bddedc2c5" x="351.545" y="60.963259" style="stroke: #000000"/>
     <use xlink:href="#m0bddedc2c5" x="355.4832" y="60.741217" style="stroke: #000000"/>
     <use xlink:href="#m0bddedc2c5" x="359.4214" y="60.514903" style="stroke: #000000"/>
     <use xlink:href="#m0bddedc2c5" x="363.3596" y="60.303715" style="stroke: #000000"/>
     <use xlink:href="#m0bddedc2c5" x="367.2978" y="60.138671" style="stroke: #000000"/>
     <use xlink:href="#m0bddedc2c5" x="371.236" y="59.933534" style="stroke: #000000"/>
     <use xlink:href="#m0bddedc2c5" x="375.1742" y="59.744316" style="stroke: #000000"/>
     <use xlink:href="#m0bddedc2c5" x="379.1124" y="59.599408" style="stroke: #000000"/>
     <use xlink:href="#m0bddedc2c5" x="383.0506" y="59.50641" style="stroke: #000000"/>
     <use xlink:href="#m0bddedc2c5" x="386.9888" y="59.443415" style="stroke: #000000"/>
     <use xlink:href="#m0bddedc2c5" x="390.927" y="59.405112" style="stroke: #000000"/>
     <use xlink:href="#m0bddedc2c5" x="394.8652" y="59.385927" style="stroke: #000000"/>
     <use xlink:href="#m0bddedc2c5" x="398.8034" y="59.381838" style="stroke: #000000"/>
     <use xlink:href="#m0bddedc2c5" x="402.7416" y="59.390503" style="stroke: #000000"/>
     <use xlink:href="#m0bddedc2c5" x="406.6798" y="59.412865" style="stroke: #000000"/>
     <use xlink:href="#m0bddedc2c5" x="410.618" y="59.450474" style="stroke: #000000"/>
     <use xlink:href="#m0bddedc2c5" x="414.5562" y="59.506677" style="stroke: #000000"/>
     <use xlink:href="#m0bddedc2c5" x="418.4944" y="59.58145" style="stroke: #000000"/>
     <use xlink:href="#m0bddedc2c5" x="422.4326" y="59.674389" style="stroke: #000000"/>
     <use xlink:href="#m0bddedc2c5" x="426.3708" y="59.783731" style="stroke: #000000"/>
     <use xlink:href="#m0bddedc2c5" x="430.309" y="59.907585" style="stroke: #000000"/>
     <use xlink:href="#m0bddedc2c5" x="434.2472" y="60.040403" style="stroke: #000000"/>
     <use xlink:href="#m0bddedc2c5" x="438.1854" y="60.178697" style="stroke: #000000"/>
     <use xlink:href="#m0bddedc2c5" x="442.1236" y="60.319684" style="stroke: #000000"/>
     <use xlink:href="#m0bddedc2c5" x="446.0618" y="60.463001" style="stroke: #000000"/>
    </g>
   </g>
   <g id="line2d_13">
    <path d="M 56.18 47.544513 
L 60.1182 47.976478 
L 64.0564 49.104873 
L 67.9946 50.659887 
L 71.9328 52.61249 
L 75.871 54.935921 
L 79.8092 57.359877 
L 83.7474 59.923466 
L 87.6856 62.936426 
L 91.6238 65.958184 
L 95.562 68.976313 
L 99.5002 72.203895 
L 103.4384 75.840022 
L 107.3766 79.243202 
L 111.3148 83.017289 
L 115.253 86.685467 
L 119.1912 90.340945 
L 123.1294 94.203907 
L 127.0676 97.972214 
L 131.0058 101.777965 
L 134.944 105.731688 
L 138.8822 109.589419 
L 142.8204 113.384007 
L 146.7586 117.248631 
L 150.6968 121.095595 
L 154.635 124.979512 
L 158.5732 128.881849 
L 162.5114 132.63075 
L 166.4496 136.42773 
L 170.3878 140.185103 
L 174.326 144.024293 
L 178.2642 147.784287 
L 182.2024 151.455272 
L 186.1406 154.823851 
L 190.0788 158.253992 
L 194.017 161.626894 
L 197.9552 164.889581 
L 201.8934 168.142816 
L 205.8316 171.12985 
L 209.7698 173.681908 
L 213.708 176.163781 
L 217.6462 178.556936 
L 221.5844 180.884818 
L 225.5226 183.247896 
L 229.4608 185.435908 
L 233.399 187.621102 
L 237.3372 189.52359 
L 241.2754 191.507187 
L 245.2136 193.315238 
L 249.1518 194.804064 
L 253.09 196.216702 
L 257.0282 197.464147 
L 260.9664 198.414123 
L 264.9046 199.239863 
L 268.8428 199.981877 
L 272.781 200.454136 
L 276.7192 200.629554 
L 280.6574 200.852739 
L 284.5956 200.956588 
L 288.5338 200.952259 
L 292.472 201.059877 
L 296.4102 201.14333 
L 300.3484 201.069061 
L 304.2866 200.781507 
L 308.2248 200.440857 
L 312.163 200.107448 
L 316.1012 199.816936 
L 320.0394 199.339653 
L 323.9776 198.708768 
L 327.9158 198.18333 
L 331.854 197.44222 
L 335.7922 196.540323 
L 339.7304 195.747137 
L 343.6686 194.773276 
L 347.6068 194.122445 
L 351.545 193.152023 
L 355.4832 192.32627 
L 359.4214 191.224871 
L 363.3596 189.769681 
L 367.2978 188.715852 
L 371.236 187.556334 
L 375.1742 186.377848 
L 379.1124 185.272734 
L 383.0506 183.990641 
L 386.9888 182.850863 
L 390.927 181.537313 
L 394.8652 180.227242 
L 398.8034 179.062532 
L 402.7416 178.062595 
L 406.6798 177.010782 
L 410.618 176.109218 
L 414.5562 175.177908 
L 418.4944 174.292111 
L 422.4326 173.367215 
L 426.3708 172.649381 
L 430.309 172.087641 
L 434.2472 171.574054 
L 438.1854 170.960546 
L 442.1236 170.659553 
L 446.0618 170.316176 
" clip-path="url(#p4d1eb10f53)" style="fill: none; stroke: #ff0000; stroke-width: 1.5; stroke-linecap: square"/>
    <defs>
     <path id="m3a64de3a0f" d="M 0 3 
C 0.795609 3 1.55874 2.683901 2.12132 2.12132 
C 2.683901 1.55874 3 0.795609 3 0 
C 3 -0.795609 2.683901 -1.55874 2.12132 -2.12132 
C 1.55874 -2.683901 0.795609 -3 0 -3 
C -0.795609 -3 -1.55874 -2.683901 -2.12132 -2.12132 
C -2.683901 -1.55874 -3 -0.795609 -3 0 
C -3 0.795609 -2.683901 1.55874 -2.12132 2.12132 
C -1.55874 2.683901 -0.795609 3 0 3 
z
" style="stroke: #ff0000"/>
    </defs>
    <g clip-path="url(#p4d1eb10f53)">
     <use xlink:href="#m3a64de3a0f" x="56.18" y="47.544513" style="fill: #ff0000; stroke: #ff0000"/>
     <use xlink:href="#m3a64de3a0f" x="60.1182" y="47.976478" style="fill: #ff0000; stroke: #ff0000"/>
     <use xlink:href="#m3a64de3a0f" x="64.0564" y="49.104873" style="fill: #ff0000; stroke: #ff0000"/>
     <use xlink:href="#m3a64de3a0f" x="67.9946" y="50.659887" style="fill: #ff0000; stroke: #ff0000"/>
     <use xlink:href="#m3a64de3a0f" x="71.9328" y="52.61249" style="fill: #ff0000; stroke: #ff0000"/>
     <use xlink:href="#m3a64de3a0f" x="75.871" y="54.935921" style="fill: #ff0000; stroke: #ff0000"/>
     <use xlink:href="#m3a64de3a0f" x="79.8092" y="57.359877" style="fill: #ff0000; stroke: #ff0000"/>
     <use xlink:href="#m3a64de3a0f" x="83.7474" y="59.923466" style="fill: #ff0000; stroke: #ff0000"/>
     <use xlink:href="#m3a64de3a0f" x="87.6856" y="62.936426" style="fill: #ff0000; stroke: #ff0000"/>
     <use xlink:href="#m3a64de3a0f" x="91.6238" y="65.958184" style="fill: #ff0000; stroke: #ff0000"/>
     <use xlink:href="#m3a64de3a0f" x="95.562" y="68.976313" style="fill: #ff0000; stroke: #ff0000"/>
     <use xlink:href="#m3a64de3a0f" x="99.5002" y="72.203895" style="fill: #ff0000; stroke: #ff0000"/>
     <use xlink:href="#m3a64de3a0f" x="103.4384" y="75.840022" style="fill: #ff0000; stroke: #ff0000"/>
     <use xlink:href="#m3a64de3a0f" x="107.3766" y="79.243202" style="fill: #ff0000; stroke: #ff0000"/>
     <use xlink:href="#m3a64de3a0f" x="111.3148" y="83.017289" style="fill: #ff0000; stroke: #ff0000"/>
     <use xlink:href="#m3a64de3a0f" x="115.253" y="86.685467" style="fill: #ff0000; stroke: #ff0000"/>
     <use xlink:href="#m3a64de3a0f" x="119.1912" y="90.340945" style="fill: #ff0000; stroke: #ff0000"/>
     <use xlink:href="#m3a64de3a0f" x="123.1294" y="94.203907" style="fill: #ff0000; stroke: #ff0000"/>
     <use xlink:href="#m3a64de3a0f" x="127.0676" y="97.972214" style="fill: #ff0000; stroke: #ff0000"/>
     <use xlink:href="#m3a64de3a0f" x="131.0058" y="101.777965" style="fill: #ff0000; stroke: #ff0000"/>
     <use xlink:href="#m3a64de3a0f" x="134.944" y="105.731688" style="fill: #ff0000; stroke: #ff0000"/>
     <use xlink:href="#m3a64de3a0f" x="138.8822" y="109.589419" style="fill: #ff0000; stroke: #ff0000"/>
     <use xlink:href="#m3a64de3a0f" x="142.8204" y="113.384007" style="fill: #ff0000; stroke: #ff0000"/>
     <use xlink:href="#m3a64de3a0f" x="146.7586" y="117.248631" style="fill: #ff0000; stroke: #ff0000"/>
     <use xlink:href="#m3a64de3a0f" x="150.6968" y="121.095595" style="fill: #ff0000; stroke: #ff0000"/>
     <use xlink:href="#m3a64de3a0f" x="154.635" y="124.979512" style="fill: #ff0000; stroke: #ff0000"/>
     <use xlink:href="#m3a64de3a0f" x="158.5732" y="128.881849" style="fill: #ff0000; stroke: #ff0000"/>
     <use xlink:href="#m3a64de3a0f" x="162.5114" y="132.63075" style="fill: #ff0000; stroke: #ff0000"/>
     <use xlink:href="#m3a64de3a0f" x="166.4496" y="136.42773" style="fill: #ff0000; stroke: #ff0000"/>
     <use xlink:href="#m3a64de3a0f" x="170.3878" y="140.185103" style="fill: #ff0000; stroke: #ff0000"/>
     <use xlink:href="#m3a64de3a0f" x="174.326" y="144.024293" style="fill: #ff0000; stroke: #ff0000"/>
     <use xlink:href="#m3a64de3a0f" x="178.2642" y="147.784287" style="fill: #ff0000; stroke: #ff0000"/>
     <use xlink:href="#m3a64de3a0f" x="182.2024" y="151.455272" style="fill: #ff0000; stroke: #ff0000"/>
     <use xlink:href="#m3a64de3a0f" x="186.1406" y="154.823851" style="fill: #ff0000; stroke: #ff0000"/>
     <use xlink:href="#m3a64de3a0f" x="190.0788" y="158.253992" style="fill: #ff0000; stroke: #ff0000"/>
     <use xlink:href="#m3a64de3a0f" x="194.017" y="161.626894" style="fill: #ff0000; stroke: #ff0000"/>
     <use xlink:href="#m3a64de3a0f" x="197.9552" y="164.889581" style="fill: #ff0000; stroke: #ff0000"/>
     <use xlink:href="#m3a64de3a0f" x="201.8934" y="168.142816" style="fill: #ff0000; stroke: #ff0000"/>
     <use xlink:href="#m3a64de3a0f" x="205.8316" y="171.12985" style="fill: #ff0000; stroke: #ff0000"/>
     <use xlink:href="#m3a64de3a0f" x="209.7698" y="173.681908" style="fill: #ff0000; stroke: #ff0000"/>
     <use xlink:href="#m3a64de3a0f" x="213.708" y="176.163781" style="fill: #ff0000; stroke: #ff0000"/>
     <use xlink:href="#m3a64de3a0f" x="217.6462" y="178.556936" style="fill: #ff0000; stroke: #ff0000"/>
     <use xlink:href="#m3a64de3a0f" x="221.5844" y="180.884818" style="fill: #ff0000; stroke: #ff0000"/>
     <use xlink:href="#m3a64de3a0f" x="225.5226" y="183.247896" style="fill: #ff0000; stroke: #ff0000"/>
     <use xlink:href="#m3a64de3a0f" x="229.4608" y="185.435908" style="fill: #ff0000; stroke: #ff0000"/>
     <use xlink:href="#m3a64de3a0f" x="233.399" y="187.621102" style="fill: #ff0000; stroke: #ff0000"/>
     <use xlink:href="#m3a64de3a0f" x="237.3372" y="189.52359" style="fill: #ff0000; stroke: #ff0000"/>
     <use xlink:href="#m3a64de3a0f" x="241.2754" y="191.507187" style="fill: #ff0000; stroke: #ff0000"/>
     <use xlink:href="#m3a64de3a0f" x="245.2136" y="193.315238" style="fill: #ff0000; stroke: #ff0000"/>
     <use xlink:href="#m3a64de3a0f" x="249.1518" y="194.804064" style="fill: #ff0000; stroke: #ff0000"/>
     <use xlink:href="#m3a64de3a0f" x="253.09" y="196.216702" style="fill: #ff0000; stroke: #ff0000"/>
     <use xlink:href="#m3a64de3a0f" x="257.0282" y="197.464147" style="fill: #ff0000; stroke: #ff0000"/>
     <use xlink:href="#m3a64de3a0f" x="260.9664" y="198.414123" style="fill: #ff0000; stroke: #ff0000"/>
     <use xlink:href="#m3a64de3a0f" x="264.9046" y="199.239863" style="fill: #ff0000; stroke: #ff0000"/>
     <use xlink:href="#m3a64de3a0f" x="268.8428" y="199.981877" style="fill: #ff0000; stroke: #ff0000"/>
     <use xlink:href="#m3a64de3a0f" x="272.781" y="200.454136" style="fill: #ff0000; stroke: #ff0000"/>
     <use xlink:href="#m3a64de3a0f" x="276.7192" y="200.629554" style="fill: #ff0000; stroke: #ff0000"/>
     <use xlink:href="#m3a64de3a0f" x="280.6574" y="200.852739" style="fill: #ff0000; stroke: #ff0000"/>
     <use xlink:href="#m3a64de3a0f" x="284.5956" y="200.956588" style="fill: #ff0000; stroke: #ff0000"/>
     <use xlink:href="#m3a64de3a0f" x="288.5338" y="200.952259" style="fill: #ff0000; stroke: #ff0000"/>
     <use xlink:href="#m3a64de3a0f" x="292.472" y="201.059877" style="fill: #ff0000; stroke: #ff0000"/>
     <use xlink:href="#m3a64de3a0f" x="296.4102" y="201.14333" style="fill: #ff0000; stroke: #ff0000"/>
     <use xlink:href="#m3a64de3a0f" x="300.3484" y="201.069061" style="fill: #ff0000; stroke: #ff0000"/>
     <use xlink:href="#m3a64de3a0f" x="304.2866" y="200.781507" style="fill: #ff0000; stroke: #ff0000"/>
     <use xlink:href="#m3a64de3a0f" x="308.2248" y="200.440857" style="fill: #ff0000; stroke: #ff0000"/>
     <use xlink:href="#m3a64de3a0f" x="312.163" y="200.107448" style="fill: #ff0000; stroke: #ff0000"/>
     <use xlink:href="#m3a64de3a0f" x="316.1012" y="199.816936" style="fill: #ff0000; stroke: #ff0000"/>
     <use xlink:href="#m3a64de3a0f" x="320.0394" y="199.339653" style="fill: #ff0000; stroke: #ff0000"/>
     <use xlink:href="#m3a64de3a0f" x="323.9776" y="198.708768" style="fill: #ff0000; stroke: #ff0000"/>
     <use xlink:href="#m3a64de3a0f" x="327.9158" y="198.18333" style="fill: #ff0000; stroke: #ff0000"/>
     <use xlink:href="#m3a64de3a0f" x="331.854" y="197.44222" style="fill: #ff0000; stroke: #ff0000"/>
     <use xlink:href="#m3a64de3a0f" x="335.7922" y="196.540323" style="fill: #ff0000; stroke: #ff0000"/>
     <use xlink:href="#m3a64de3a0f" x="339.7304" y="195.747137" style="fill: #ff0000; stroke: #ff0000"/>
     <use xlink:href="#m3a64de3a0f" x="343.6686" y="194.773276" style="fill: #ff0000; stroke: #ff0000"/>
     <use xlink:href="#m3a64de3a0f" x="347.6068" y="194.122445" style="fill: #ff0000; stroke: #ff0000"/>
     <use xlink:href="#m3a64de3a0f" x="351.545" y="193.152023" style="fill: #ff0000; stroke: #ff0000"/>
     <use xlink:href="#m3a64de3a0f" x="355.4832" y="192.32627" style="fill: #ff0000; stroke: #ff0000"/>
     <use xlink:href="#m3a64de3a0f" x="359.4214" y="191.224871" style="fill: #ff0000; stroke: #ff0000"/>
     <use xlink:href="#m3a64de3a0f" x="363.3596" y="189.769681" style="fill: #ff0000; stroke: #ff0000"/>
     <use xlink:href="#m3a64de3a0f" x="367.2978" y="188.715852" style="fill: #ff0000; stroke: #ff0000"/>
     <use xlink:href="#m3a64de3a0f" x="371.236" y="187.556334" style="fill: #ff0000; stroke: #ff0000"/>
     <use xlink:href="#m3a64de3a0f" x="375.1742" y="186.377848" style="fill: #ff0000; stroke: #ff0000"/>
     <use xlink:href="#m3a64de3a0f" x="379.1124" y="185.272734" style="fill: #ff0000; stroke: #ff0000"/>
     <use xlink:href="#m3a64de3a0f" x="383.0506" y="183.990641" style="fill: #ff0000; stroke: #ff0000"/>
     <use xlink:href="#m3a64de3a0f" x="386.9888" y="182.850863" style="fill: #ff0000; stroke: #ff0000"/>
     <use xlink:href="#m3a64de3a0f" x="390.927" y="181.537313" style="fill: #ff0000; stroke: #ff0000"/>
     <use xlink:href="#m3a64de3a0f" x="394.8652" y="180.227242" style="fill: #ff0000; stroke: #ff0000"/>
     <use xlink:href="#m3a64de3a0f" x="398.8034" y="179.062532" style="fill: #ff0000; stroke: #ff0000"/>
     <use xlink:href="#m3a64de3a0f" x="402.7416" y="178.062595" style="fill: #ff0000; stroke: #ff0000"/>
     <use xlink:href="#m3a64de3a0f" x="406.6798" y="177.010782" style="fill: #ff0000; stroke: #ff0000"/>
     <use xlink:href="#m3a64de3a0f" x="410.618" y="176.109218" style="fill: #ff0000; stroke: #ff0000"/>
     <use xlink:href="#m3a64de3a0f" x="414.5562" y="175.177908" style="fill: #ff0000; stroke: #ff0000"/>
     <use xlink:href="#m3a64de3a0f" x="418.4944" y="174.292111" style="fill: #ff0000; stroke: #ff0000"/>
     <use xlink:href="#m3a64de3a0f" x="422.4326" y="173.367215" style="fill: #ff0000; stroke: #ff0000"/>
     <use xlink:href="#m3a64de3a0f" x="426.3708" y="172.649381" style="fill: #ff0000; stroke: #ff0000"/>
     <use xlink:href="#m3a64de3a0f" x="430.309" y="172.087641" style="fill: #ff0000; stroke: #ff0000"/>
     <use xlink:href="#m3a64de3a0f" x="434.2472" y="171.574054" style="fill: #ff0000; stroke: #ff0000"/>
     <use xlink:href="#m3a64de3a0f" x="438.1854" y="170.960546" style="fill: #ff0000; stroke: #ff0000"/>
     <use xlink:href="#m3a64de3a0f" x="442.1236" y="170.659553" style="fill: #ff0000; stroke: #ff0000"/>
     <use xlink:href="#m3a64de3a0f" x="446.0618" y="170.316176" style="fill: #ff0000; stroke: #ff0000"/>
    </g>
   </g>
   <g id="LineCollection_1">
    <path d="M 56.18 175.468623 
L 450 175.468623 
" clip-path="url(#p4d1eb10f53)" style="fill: none; stroke-dasharray: 3.7,1.6; stroke-dashoffset: 0; stroke: #000000; stroke-opacity: 0.5"/>
   </g>
   <g id="patch_3">
    <path d="M 56.18 303.64 
L 56.18 10.8 
" style="fill: none; stroke: #000000; stroke-width: 0.8; stroke-linejoin: miter; stroke-linecap: square"/>
   </g>
   <g id="patch_4">
    <path d="M 450 303.64 
L 450 10.8 
" style="fill: none; stroke: #000000; stroke-width: 0.8; stroke-linejoin: miter; stroke-linecap: square"/>
   </g>
   <g id="patch_5">
    <path d="M 56.18 303.64 
L 450 303.64 
" style="fill: none; stroke: #000000; stroke-width: 0.8; stroke-linejoin: miter; stroke-linecap: square"/>
   </g>
   <g id="patch_6">
    <path d="M 56.18 10.8 
L 450 10.8 
" style="fill: none; stroke: #000000; stroke-width: 0.8; stroke-linejoin: miter; stroke-linecap: square"/>
   </g>
   <g id="legend_1">
    <g id="line2d_14">
     <path d="M 65.18 274.382187 
L 75.18 274.382187 
L 85.18 274.382187 
" style="fill: none; stroke: #000000; stroke-width: 1.5; stroke-linecap: square"/>
     <g>
      <use xlink:href="#m0bddedc2c5" x="75.18" y="274.382187" style="stroke: #000000"/>
     </g>
    </g>
    <g id="text_14">
     <!-- 400K -->
     <g transform="translate(93.18 277.882187) scale(0.1 -0.1)">
      <defs>
       <path id="DejaVuSans-4b" d="M 628 4666 
L 1259 4666 
L 1259 2694 
L 3353 4666 
L 4166 4666 
L 1850 2491 
L 4331 0 
L 3500 0 
L 1259 2247 
L 1259 0 
L 628 0 
L 628 4666 
z
" transform="scale(0.015625)"/>
      </defs>
      <use xlink:href="#DejaVuSans-34"/>
      <use xlink:href="#DejaVuSans-30" x="63.623047"/>
      <use xlink:href="#DejaVuSans-30" x="127.246094"/>
      <use xlink:href="#DejaVuSans-4b" x="190.869141"/>
     </g>
    </g>
    <g id="line2d_15">
     <path d="M 65.18 289.060312 
L 75.18 289.060312 
L 85.18 289.060312 
" style="fill: none; stroke: #ff0000; stroke-width: 1.5; stroke-linecap: square"/>
     <g>
      <use xlink:href="#m3a64de3a0f" x="75.18" y="289.060312" style="fill: #ff0000; stroke: #ff0000"/>
     </g>
    </g>
    <g id="text_15">
     <!-- 1000K -->
     <g transform="translate(93.18 292.560312) scale(0.1 -0.1)">
      <use xlink:href="#DejaVuSans-31"/>
      <use xlink:href="#DejaVuSans-30" x="63.623047"/>
      <use xlink:href="#DejaVuSans-30" x="127.246094"/>
      <use xlink:href="#DejaVuSans-30" x="190.869141"/>
      <use xlink:href="#DejaVuSans-4b" x="254.492188"/>
     </g>
    </g>
   </g>
  </g>
 </g>
 <defs>
  <clipPath id="p4d1eb10f53">
   <rect x="56.18" y="10.8" width="393.82" height="292.84"/>
  </clipPath>
 </defs>
</svg>
